<?xml version="1.0" encoding="UTF-8" standalone="no"?>
<!-- Created with Inkscape (http://www.inkscape.org/) -->

<svg
   width="345.86865"
   height="347.48816"
   viewBox="0 0 91.511079 91.939575"
   version="1.1"
   id="svg1"
   xml:space="preserve"
   inkscape:version="1.2.2 (b0a8486541, 2022-12-01)"
   sodipodi:docname="logo.svg"
   xmlns:inkscape="http://www.inkscape.org/namespaces/inkscape"
   xmlns:sodipodi="http://sodipodi.sourceforge.net/DTD/sodipodi-0.dtd"
   xmlns:xlink="http://www.w3.org/1999/xlink"
   xmlns="http://www.w3.org/2000/svg"
   xmlns:svg="http://www.w3.org/2000/svg"><sodipodi:namedview
     id="namedview1"
     pagecolor="#505050"
     bordercolor="#ffffff"
     borderopacity="1"
     inkscape:showpageshadow="0"
     inkscape:pageopacity="0"
     inkscape:pagecheckerboard="1"
     inkscape:deskcolor="#505050"
     inkscape:document-units="mm"
     inkscape:zoom="1.18"
     inkscape:cx="914.40678"
     inkscape:cy="648.72881"
     inkscape:window-width="3840"
     inkscape:window-height="2088"
     inkscape:window-x="0"
     inkscape:window-y="0"
     inkscape:window-maximized="1"
     inkscape:current-layer="g4"
     showgrid="false" /><defs
     id="defs1"><linearGradient
       id="linearGradient5428"
       inkscape:swatch="solid"><stop
         style="stop-color:#ffffff;stop-opacity:1;"
         offset="0"
         id="stop5426" /></linearGradient><linearGradient
       inkscape:collect="always"
       id="linearGradient4602"><stop
         style="stop-color:#000000;stop-opacity:1;"
         offset="0"
         id="stop4598" /><stop
         style="stop-color:#000000;stop-opacity:0.19089317;"
         offset="1"
         id="stop4600" /></linearGradient><linearGradient
       inkscape:collect="always"
       id="linearGradient4594"><stop
         style="stop-color:#000000;stop-opacity:1;"
         offset="0"
         id="stop4590" /><stop
         style="stop-color:#000495;stop-opacity:0.40980735;"
         offset="1"
         id="stop4592" /></linearGradient><linearGradient
       inkscape:collect="always"
       id="linearGradient6100"><stop
         style="stop-color:#00337d;stop-opacity:1;"
         offset="0"
         id="stop6096" /><stop
         style="stop-color:#000000;stop-opacity:0.07648725;"
         offset="0.99211043"
         id="stop6098" /></linearGradient><linearGradient
       inkscape:collect="always"
       xlink:href="#linearGradient6100"
       id="linearGradient7748"
       x1="200.55244"
       y1="142.97224"
       x2="227.64642"
       y2="142.97224"
       gradientUnits="userSpaceOnUse"
       gradientTransform="matrix(1.6860733,0,0,1.6860733,-104.18444,-86.102295)" /><linearGradient
       inkscape:collect="always"
       xlink:href="#linearGradient6100"
       id="linearGradient1333"
       gradientUnits="userSpaceOnUse"
       gradientTransform="matrix(1.6860733,0,0,1.6860733,-104.18444,-86.102295)"
       x1="200.55244"
       y1="142.97224"
       x2="227.64642"
       y2="142.97224" /><linearGradient
       inkscape:collect="always"
       xlink:href="#linearGradient4594"
       id="linearGradient4596"
       x1="236.38907"
       y1="155.78026"
       x2="278.07324"
       y2="155.78026"
       gradientUnits="userSpaceOnUse" /><linearGradient
       inkscape:collect="always"
       xlink:href="#linearGradient4602"
       id="linearGradient4678"
       gradientUnits="userSpaceOnUse"
       x1="15.624587"
       y1="104.97212"
       x2="176.72894"
       y2="104.97212"
       gradientTransform="matrix(0.94729517,0,0,0.94729517,5.08582,5.24397)" /></defs><g
     id="g4"
     transform="matrix(0.53796571,0,0,0.53796571,-6.0257467,-10.214361)"
     inkscape:label="center logo container"
     style="display:inline;fill:#1a1a1a"><path
       d="M 96.176759,185.10537 15.624587,139.07707 31.432358,24.838863 162.50148,24.84192 176.72894,139.07707 Z"
       fill="#1e90ff"
       stroke="#ffffff"
       stroke-width="11.2751"
       id="path48"
       sodipodi:nodetypes="cccccc"
       style="stroke:none;stroke-width:8.30736421;stroke-dasharray:none;fill:#1e90ff;fill-opacity:1;stroke-linejoin:miter;stroke-linecap:square;paint-order:normal"
       inkscape:label="shield" /><path
       d="M 96.193597,180.59339 19.886916,136.991 34.861541,28.773704 159.02268,28.776641 172.5003,136.99104 Z"
       fill="#1e90ff"
       stroke="#ffffff"
       stroke-width="11.2751"
       id="path48-7"
       sodipodi:nodetypes="cccccc"
       style="display:inline;fill:none;fill-opacity:1;stroke:url(#linearGradient4678);stroke-width:7.86952;stroke-linecap:square;stroke-linejoin:miter;stroke-dasharray:none;paint-order:normal"
       inkscape:label="relief" /><path
       d="m 242.88438,172.23265 c -1.92718,4.42538 -3.56885,5.99567 -6.49531,6.06705 v 3.64023 h 16.05983 v -3.64023 h -0.78515 c -3.06921,0 -4.78226,-0.99928 -4.78226,-2.7837 0,-0.71377 0.28551,-2.28407 0.6424,-3.14059 l 6.92356,-18.05838 6.56669,20.4852 c 0.57101,1.57029 0.57101,1.57029 0.57101,1.99855 0,1.07066 -0.78514,1.49892 -2.49819,1.49892 h -1.28479 v 3.64023 h 20.27107 v -3.64023 c -2.56957,0 -3.35472,-0.57102 -4.354,-2.85508 l -8.77937,-22.62651 c -0.9279,-2.42682 -1.57029,-4.06849 -1.78442,-4.56813 -0.35689,-0.99928 -0.78515,-2.35544 -1.28479,-3.99711 -2.42682,-7.70872 -2.49819,-7.85147 -3.7116,-10.06416 -1.71305,-2.92645 -4.85364,-4.56812 -8.708,-4.56812 -5.13914,0 -8.42248,2.71232 -8.42248,6.92356 0,3.28335 2.42682,5.85292 5.63878,5.85292 3.06921,0 5.13915,-2.06993 5.13915,-4.99639 0,-0.64239 -0.0714,-1.21341 -0.28551,-1.92718 -0.14276,-0.35689 -0.14276,-0.49964 -0.14276,-0.64239 0,-0.57102 0.35689,-0.9279 0.78515,-0.9279 1.21341,0 1.99856,1.8558 1.99856,4.78225 0,1.28479 -0.21413,3.21197 -0.49964,4.85364 -0.28551,1.71305 -0.49964,2.71233 -0.49964,3.14059 -0.14276,0.49964 -0.14276,0.9279 -0.14276,1.42754 z"
       style="display:inline;fill:#ffffff;font-weight:bold;font-size:71.377px;line-height:97.7924px;font-family:C059;-inkscape-font-specification:'C059 Bold';text-align:end;text-anchor:end;opacity:1;stroke:url(#linearGradient4596);stroke-width:2.42795;paint-order:stroke fill markers;fill-opacity:1"
       id="path4502"
       inkscape:label="lambda"
       transform="matrix(1.8588546,0,0,1.8588546,-378.27196,-198.772)" /></g></svg>
