<?xml version="1.0" encoding="UTF-8" standalone="no"?>
<!-- Created with Inkscape (http://www.inkscape.org/) -->

<svg
   id="svg3406"
   version="1.1"
   inkscape:version="1.2.2 (b0a8486541, 2022-12-01)"
   width="4.744cm"
   height="7.4954209cm"
   viewBox="0 0 179.30077 283.29151"
   sodipodi:docname="coq-logo-vector.svg"
   inkscape:export-filename="/home/caleb/Desktop/2017-09-05 coq logo/coq-vector-large.svg.png"
   inkscape:export-xdpi="10714.286"
   inkscape:export-ydpi="10714.286"
   xmlns:inkscape="http://www.inkscape.org/namespaces/inkscape"
   xmlns:sodipodi="http://sodipodi.sourceforge.net/DTD/sodipodi-0.dtd"
   xmlns="http://www.w3.org/2000/svg"
   xmlns:svg="http://www.w3.org/2000/svg"
   xmlns:rdf="http://www.w3.org/1999/02/22-rdf-syntax-ns#"
   xmlns:cc="http://creativecommons.org/ns#"
   xmlns:dc="http://purl.org/dc/elements/1.1/">
  <metadata
     id="metadata3412">
    <rdf:RDF>
      <cc:Work
         rdf:about="">
        <dc:format>image/svg+xml</dc:format>
        <dc:type
           rdf:resource="http://purl.org/dc/dcmitype/StillImage" />
      </cc:Work>
    </rdf:RDF>
  </metadata>
  <defs
     id="defs3410" />
  <sodipodi:namedview
     pagecolor="#858585"
     bordercolor="#666666"
     borderopacity="1"
     objecttolerance="10"
     gridtolerance="10"
     guidetolerance="10"
     inkscape:pageopacity="0.4"
     inkscape:pageshadow="2"
     inkscape:window-width="3840"
     inkscape:window-height="2088"
     id="namedview3408"
     showgrid="false"
     inkscape:zoom="128"
     inkscape:cx="2.4296875"
     inkscape:cy="5.8164062"
     inkscape:window-x="0"
     inkscape:window-y="0"
     inkscape:window-maximized="1"
     inkscape:current-layer="g3550"
     inkscape:showpageshadow="2"
     inkscape:pagecheckerboard="true"
     inkscape:deskcolor="#d1d1d1"
     inkscape:document-units="cm" />
  <g
     id="g3550"
     transform="matrix(23.016805,0,0,23.016805,-4.1693189,-12.07671)"
     style="fill:#ffffff;fill-opacity:1;stroke:none;stroke-width:0.129724;stroke-dasharray:none;stroke-opacity:1">
    <path
       style="fill:#ffffff;fill-opacity:1;stroke:none;stroke-width:0.129724;stroke-dasharray:none;stroke-opacity:1"
       d="m 1.5740339,12.387598 c 0,-0.410199 0.010761,-0.436569 0.3343093,-0.819226 0.4200085,-0.496739 0.541219,-0.751134 0.541219,-1.135903 0,-0.4781824 -0.2953595,-0.809586 -1.0924763,-1.2257968 C 0.64936119,8.8371374 0.41375504,8.6597081 0.44345586,8.518641 0.45408767,8.4681446 0.71782156,8.2692865 1.0295312,8.0767349 1.735222,7.64081 1.9886988,7.3007199 2.1507297,6.5724219 2.3080603,5.8652515 2.2568392,5.3647534 1.9883447,4.9857051 1.8754663,4.8263484 1.762156,4.6089004 1.736544,4.5024874 1.6911434,4.3138556 1.6813547,4.309971 1.345775,4.3474145 L 1.0015731,4.38582 1.2871303,4.1282496 1.5726874,3.8706793 1.35903,3.8279479 C 1.0214919,3.7604403 0.59247623,3.2655621 0.49538604,2.8317174 0.25690834,1.7660866 1.2918514,0.6952022 2.5648953,0.6903384 3.3940433,0.68717055 4.1766319,1.1779321 4.4393299,1.865797 4.6186832,2.3354271 4.5511186,3.0977935 4.283489,3.6242278 4.0951318,3.9947313 3.677263,4.4602466 3.5330384,4.4602466 3.4211311,4.4602466 3.3368797,4.2862997 3.288387,3.9551341 3.2136779,3.4449328 3.1309549,3.2920142 3.1608721,3.7194149 c 0.014261,0.2037287 0.041772,0.7189435 0.061136,1.1449217 0.034425,0.7572965 0.2433655,1.918279 0.3675855,2.042499 0.038345,0.038345 0.09142,-0.051305 0.1375653,-0.2323641 C 4.0295444,5.4879954 4.3240608,4.9501006 4.9207894,4.4944645 5.2986307,4.2059612 5.672651,4.0973403 6.127727,4.1439527 7.2439592,4.2582856 7.9737356,5.099778 7.9711299,6.2695484 7.9689748,7.2380583 7.6271059,8.0799609 6.9754936,8.721464 6.2898121,9.3965091 5.7951395,9.6242643 4.7523556,9.7450353 4.402214,9.7855871 4.3964814,9.7834616 4.4725699,9.6412893 L 4.55025,9.4961422 4.3368521,9.6216168 c -0.14848,0.087303 -0.1811728,0.1320984 -0.1074673,0.1472491 0.1295878,0.026643 0.1367221,-0.016227 -0.062722,0.3768921 -0.2645108,0.521375 -0.2354985,0.933027 0.1013044,1.437393 0.2410478,0.360972 0.2693934,0.446816 0.2693934,0.815854 V 12.81144 H 3.0556973 1.5740339 Z M 5.3862384,8.5981612 C 5.480719,8.2217211 5.1859469,7.8236965 4.9714978,8.0381457 4.8738103,8.1358331 4.8736984,8.1677649 4.9702343,8.3988074 5.1069554,8.7260274 5.1020819,8.8345781 4.9414507,9.0399333 4.7090332,9.337062 4.8012241,9.3524262 5.0751803,9.0622202 5.2209624,8.9077911 5.3609387,8.6989641 5.3862387,8.5981612 Z"
       id="path3556"
       inkscape:connector-curvature="0" />
    <path
       style="fill:#ffffff;fill-opacity:1;stroke:none;stroke-width:0.129724;stroke-dasharray:none;stroke-opacity:1"
       d="m 1.4184418,12.337461 c 0,-0.483897 0.00798,-0.504066 0.3485654,-0.88125 0.3862772,-0.427784 0.6404272,-0.878142 0.6429358,-1.19227 l 0.00165,-0.09736 0.8094348,-0.0062 0.9473565,-0.01106 -0.081881,0.267675 c -0.1186435,0.387854 -0.026404,0.750907 0.2906015,1.166524 0.1608258,0.210854 0.1913393,0.330463 0.1913393,0.750029 v 0.499171 h -1.5749999 -1.575 z"
       id="path3554"
       inkscape:connector-curvature="0"
       sodipodi:nodetypes="ssccccssscccs" />
  </g>
</svg>
