<?xml version="1.0" encoding="UTF-8" standalone="no"?>
<!-- Created with Inkscape (http://www.inkscape.org/) -->

<svg
   width="297mm"
   height="210mm"
   viewBox="0 0 297 210"
   version="1.1"
   id="svg2099"
   xml:space="preserve"
   inkscape:version="1.2.2 (b0a8486541, 2022-12-01)"
   sodipodi:docname="embedded_rust.svg"
   inkscape:export-filename="embedded_rust.png"
   inkscape:export-xdpi="136.84"
   inkscape:export-ydpi="136.84"
   xmlns:inkscape="http://www.inkscape.org/namespaces/inkscape"
   xmlns:sodipodi="http://sodipodi.sourceforge.net/DTD/sodipodi-0.dtd"
   xmlns="http://www.w3.org/2000/svg"
   xmlns:svg="http://www.w3.org/2000/svg"><sodipodi:namedview
     id="namedview2101"
     pagecolor="#ffffff"
     bordercolor="#000000"
     borderopacity="0.25"
     inkscape:showpageshadow="2"
     inkscape:pageopacity="0.0"
     inkscape:pagecheckerboard="0"
     inkscape:deskcolor="#d1d1d1"
     inkscape:document-units="mm"
     showgrid="false"
     inkscape:current-layer="layer1" /><defs
     id="defs2096"><radialGradient
       id="a"
       cx="-492.035"
       cy="-883.37"
       r="13.998"
       gradientTransform="matrix(1.5580419,-0.44016617,-0.26394055,-0.93545292,618.04702,-948.42419)"
       gradientUnits="userSpaceOnUse"><stop
         offset="0"
         stop-color="#7d7d7d"
         id="stop2112" /><stop
         offset="0.267"
         stop-color="#7e7c7a"
         id="stop2114" /><stop
         offset="0.45"
         stop-color="#817871"
         id="stop2116" /><stop
         offset="0.608"
         stop-color="#867162"
         id="stop2118" /><stop
         offset="0.753"
         stop-color="#8d684c"
         id="stop2120" /><stop
         offset="0.886"
         stop-color="#965c30"
         id="stop2122" /><stop
         offset="1"
         stop-color="#a04f12"
         id="stop2124" /></radialGradient></defs><g
     inkscape:label="Layer 1"
     inkscape:groupmode="layer"
     id="layer1"><path
       fill="#000000"
       d="m 47.735861,83.228859 -0.572834,1.994362 -1.02669,3.566105 -7.741664,-2.224597 -0.803143,2.776487 -5.927675,-1.70365 -1.153136,3.99527 5.934214,1.71135 -0.68386,2.361 7.742559,2.22439 -2.916107,10.130814 -7.742555,-2.22439 -0.78765,2.72154 -5.927668,-1.70388 -1.153269,4.00239 5.927675,1.70366 -0.692027,2.41699 7.741662,2.2246 -2.98246,10.34611 -7.735194,-2.22469 -0.706952,2.46527 -5.934221,-1.71091 -1.153144,3.99571 5.934225,1.71069 -0.77352,2.68013 7.735203,2.22448 -2.856449,9.91627 -7.734972,-2.22469 -0.684474,2.38215 -5.934222,-1.71091 -1.146019,3.99585 5.927677,1.70344 -0.796019,2.77662 7.734976,2.22469 -1.064104,3.69796 -0.572736,2.00105 2.001044,0.57317 56.472012,16.25409 2.001024,0.5734 0.573426,-2.00149 1.063521,-3.69062 7.714389,2.2172 0.79567,-2.76996 5.990076,1.72576 1.15294,-3.99574 -5.990096,-1.72573 0.68447,-2.38216 -7.71373,-2.21695 2.85645,-9.91627 7.713726,2.21696 0.77352,-2.67992 5.99031,1.72575 1.14578,-3.9954 -5.98963,-1.72575 0.71397,-2.47227 -7.714606,-2.21719 2.97564,-10.33867 7.714606,2.21719 0.69145,-2.41009 5.98965,1.72573 1.15327,-4.00261 -5.98964,-1.72575 0.78108,-2.72788 -7.70703,-2.21728 2.9161,-10.13125 7.70704,2.21727 0.67706,-2.35444 5.99632,1.72587 1.15326,-4.00263 -5.99696,-1.72588 0.80338,-2.79052 -7.70703,-2.21726 1.02633,-3.55921 0.57965,-2.00092 -2.0009,-0.58053 -56.472137,-16.247399 -2.001051,-0.572732 z m 2.842809,5.148197 52.48274,15.101274 -20.225308,70.22497 -52.476493,-15.10204 z m 42.597604,16.589464 -16.611157,57.71181 -38.848103,-11.18792 -1.152814,4.00196 40.856507,11.76191 1.994359,0.57282 0.579629,-2.00092 17.184419,-59.70616 -4.00263,-1.15284 z"
       id="path2103"
       style="fill:#a02c2c;stroke-width:0.222733" /><path
       d="m 65.833856,115.48455 a 1.109728,1.109728 0 1 1 0.777956,1.363 v 0 a 1.1083941,1.1083941 0 0 1 -0.777956,-1.363 m -15.417406,6.20441 a 1.109728,1.109728 0 1 1 0.77797,1.363 v 0 a 1.109728,1.109728 0 0 1 -0.77797,-1.363 m 25.533754,7.03122 a 1.109728,1.109728 0 1 1 0.777954,1.363 1.1083941,1.1083941 0 0 1 -0.777954,-1.363 v 0 m -22.853912,-4.66872 a 1.0136938,1.0136938 0 0 0 0.848225,-1.15092 l -0.181197,-1.20409 1.868196,0.51051 -2.301113,8.42104 -3.769839,-1.03015 a 13.667528,13.667528 0 0 1 0.947874,-5.14875 z m 7.758422,2.34267 0.678207,-2.48192 4.449191,1.21577 c 0.230304,0.0629 1.550017,0.7084 1.265236,1.75057 -0.236257,0.86461 -1.388906,0.88288 -2.267669,0.64275 z m -9.726107,11.70446 a 1.109728,1.109728 0 1 1 0.777968,1.36299 1.1083941,1.1083941 0 0 1 -0.777968,-1.36299 v 0 m 15.851794,4.38558 a 1.109728,1.109728 0 1 1 0.777964,1.36299 1.109728,1.109728 0 0 1 -0.777964,-1.36299 v 0 m 0.994111,-2.33753 a 1.0110263,1.0110263 0 0 0 -1.363304,0.43497 l -1.223054,2.36069 a 13.670195,13.670195 0 0 1 -10.979886,-3.05704 l 0.1487,-2.65426 a 1.0123599,1.0123599 0 0 0 -0.952992,-1.06653 v 0 l -2.344394,-0.12902 a 13.648854,13.648854 0 0 1 -0.776292,-1.66259 l 10.77429,2.94416 c 0.122229,0.0334 0.20927,0.0337 0.23845,-0.0732 l 1.042791,-3.81617 c 0.03023,-0.11064 -0.04583,-0.15081 -0.168128,-0.18421 l -3.152255,-0.86138 0.661327,-2.42016 3.408298,0.93134 a 2.2207898,2.2207898 0 0 1 1.599495,2.38947 c -0.0101,0.56829 -0.185425,2.37874 -0.133301,2.98755 0.03216,0.67664 0.52057,2.14303 1.398054,2.38281 l 5.562112,1.5199 a 13.662193,13.662193 0 0 1 -1.607746,1.08165 z m 8.732589,-8.42792 a 13.6862,13.6862 0 0 1 -0.597143,2.29667 l -1.352269,-0.36952 c -0.135089,-0.0369 -0.214662,0.0367 -0.250877,0.16927 l -0.169815,0.62145 c -0.399405,1.46161 -1.311336,1.55534 -2.052708,1.43985 -0.709446,-0.1109 -1.372577,-0.68478 -1.350239,-1.13083 a 4.8230486,4.8230486 0 0 0 -1.162724,-4.20037 c 1.555174,-0.47933 3.27114,-1.34474 3.725395,-3.00707 a 4.3908948,4.3908948 0 0 0 -1.118589,-4.04313 6.0808293,6.0808293 0 0 0 -2.576053,-1.70501 l -13.989595,-3.82277 a 13.666194,13.666194 0 0 1 8.514013,-2.14792 l 1.176934,2.17997 a 1.0110263,1.0110263 0 0 0 1.370141,0.41036 v 0 l 2.327409,-1.2611 a 13.668861,13.668861 0 0 1 7.267831,8.89954 l -2.042935,2.50721 a 1.0150276,1.0150276 0 0 0 0.145053,1.42235 z m 3.137034,0.90699 0.07818,-0.45292 1.632325,-0.85785 a 0.56019924,0.56019924 0 0 0 0.192452,-0.77011 0.5708697,0.5708697 0 0 0 -0.127206,-0.14676 l -1.487358,-1.07429 -0.0112,-0.46489 1.430803,-1.15766 a 0.56286686,0.56286686 0 0 0 0.03699,-0.79324 0.57353731,0.57353731 0 0 0 -0.151788,-0.11753 l -1.675617,-0.76484 -0.103439,-0.45136 1.179186,-1.41585 a 0.55886541,0.55886541 0 0 0 -0.112393,-0.7829 0.56820208,0.56820208 0 0 0 -0.177656,-0.0886 l -1.79629,-0.42448 -0.195384,-0.41842 0.882727,-1.6213 a 0.56153303,0.56153303 0 0 0 -0.27008,-0.74719 0.58020631,0.58020631 0 0 0 -0.185276,-0.0507 l -1.845134,-0.0686 -0.265244,-0.37529 0.548571,-1.75962 a 0.56153303,0.56153303 0 0 0 -0.410029,-0.68035 0.56820208,0.56820208 0 0 0 -0.191266,-0.0136 l -1.818771,0.29531 -0.336051,-0.31859 0.19358,-1.83174 a 0.56153303,0.56153303 0 0 0 -0.531522,-0.58494 0.57353731,0.57353731 0 0 0 -0.190455,0.024 l -1.725698,0.64291 -0.393291,-0.24575 -0.166847,-1.83342 a 0.56153303,0.56153303 0 0 0 -0.638486,-0.47177 0.58954298,0.58954298 0 0 0 -0.182525,0.0607 l -1.572962,0.96948 -0.429722,-0.16305 -0.522857,-1.77032 a 0.56153303,0.56153303 0 0 0 -0.885198,-0.24188 l -1.350485,1.25841 -0.452918,-0.0782 -0.857495,-1.63362 a 0.56153303,0.56153303 0 0 0 -0.770814,-0.18989 0.58954298,0.58954298 0 0 0 -0.145124,0.12627 l -1.079075,1.48468 -0.463608,0.0116 -1.159767,-1.42308 a 0.56286686,0.56286686 0 0 0 -0.79324,-0.037 0.57353731,0.57353731 0 0 0 -0.117528,0.15178 l -0.764846,1.67563 -0.451366,0.10344 -1.417132,-1.17954 a 0.56153303,0.56153303 0 0 0 -0.783956,0.11625 0.5922106,0.5922106 0 0 0 -0.0867,0.17541 l -0.424477,1.79629 -0.418543,0.18568 -1.622,-0.88015 a 0.56153303,0.56153303 0 0 0 -0.74718,0.27009 0.58020631,0.58020631 0 0 0 -0.05062,0.18528 l -0.06735,1.84548 -0.373647,0.26432 -1.761264,-0.54765 a 0.56286686,0.56286686 0 0 0 -0.694236,0.60259 l 0.295303,1.81875 -0.318592,0.33606 -1.831734,-0.19358 a 0.56019924,0.56019924 0 0 0 -0.584942,0.53151 0.57353731,0.57353731 0 0 0 0.02402,0.19047 l 0.643253,1.7244 -0.246091,0.39458 -1.833436,0.16685 a 0.56153303,0.56153303 0 0 0 -0.471751,0.63849 0.5521964,0.5521964 0 0 0 0.06166,0.18416 l 0.969252,1.56875 -0.163055,0.42971 -1.770327,0.52286 a 0.56153303,0.56153303 0 0 0 -0.241887,0.88521 l 1.258422,1.35048 -0.07813,0.45293 -1.632331,0.85784 a 0.56153303,0.56153303 0 0 0 -0.189908,0.77082 0.58154015,0.58154015 0 0 0 0.124977,0.14476 l 1.493805,1.07604 0.01125,0.4649 -1.432205,1.1628 a 0.56153303,0.56153303 0 0 0 -0.03573,0.7936 0.57353731,0.57353731 0 0 0 0.151787,0.11752 l 1.67563,0.76484 0.103079,0.45265 -1.179184,1.41585 a 0.56286686,0.56286686 0 0 0 0.117184,0.7856 0.58420775,0.58420775 0 0 0 0.174129,0.0863 l 1.796295,0.42448 0.188249,0.41924 -0.881792,1.62294 a 0.56019924,0.56019924 0 0 0 0.267865,0.7452 0.53352309,0.53352309 0 0 0 0.187852,0.0513 l 1.842682,0.0624 0.265593,0.374 -0.548927,1.76089 a 0.55886541,0.55886541 0 0 0 0.407814,0.67836 0.55086258,0.55086258 0 0 0 0.193847,0.0142 l 1.818758,-0.29531 0.336049,0.3186 -0.19322,1.83044 a 0.56153303,0.56153303 0 0 0 0.531163,0.58624 0.54285973,0.54285973 0 0 0 0.190463,-0.024 l 1.72476,-0.64454 0.394572,0.24609 0.1672,1.83216 a 0.56286686,0.56286686 0 0 0 0.640134,0.47082 0.58154015,0.58154015 0 0 0 0.181238,-0.0611 l 1.568746,-0.96925 0.429362,0.16435 0.522852,1.77033 a 0.56286686,0.56286686 0 0 0 0.721387,0.33539 0.55086258,0.55086258 0 0 0 0.163822,-0.0935 l 1.350481,-1.25842 0.453275,0.0769 0.857855,1.63233 a 0.56153303,0.56153303 0 0 0 0.770813,0.18991 0.58154015,0.58154015 0 0 0 0.144771,-0.12498 l 1.075694,-1.49252 0.464895,-0.0113 1.157298,1.43208 a 0.56153303,0.56153303 0 0 0 0.793584,0.0358 0.57353731,0.57353731 0 0 0 0.117532,-0.15179 l 0.764499,-1.67435 0.451363,-0.10343 1.415847,1.17919 a 0.56153303,0.56153303 0 0 0 0.783959,-0.11624 0.58420775,0.58420775 0 0 0 0.08638,-0.17414 l 0.424841,-1.79758 0.417606,-0.18732 1.621652,0.88145 a 0.56153303,0.56153303 0 0 0 0.746124,-0.26624 0.59621204,0.59621204 0 0 0 0.05134,-0.18785 l 0.07553,-1.84044 0.374006,-0.26561 1.762546,0.54801 a 0.56153303,0.56153303 0 0 0 0.679047,-0.4104 0.53352309,0.53352309 0 0 0 0.01351,-0.19255 l -0.295289,-1.81877 0.31894,-0.33733 1.831739,0.19358 a 0.56153303,0.56153303 0 0 0 0.586227,-0.53117 0.57887254,0.57887254 0 0 0 -0.02463,-0.19338 l -0.643244,-1.72441 0.246074,-0.39458 1.833435,-0.16685 a 0.56019924,0.56019924 0 0 0 0.471404,-0.6372 0.5521964,0.5521964 0 0 0 -0.06162,-0.18416 l -0.969244,-1.56875 0.163,-0.42973 1.770323,-0.52286 a 0.56153303,0.56153303 0 0 0 0.241905,-0.88521 z"
       style="fill:#a02c2c;stroke-width:1.33382"
       id="path2131" /><text
       xml:space="preserve"
       style="font-style:normal;font-variant:normal;font-weight:bold;font-stretch:normal;font-size:23.5776px;line-height:27.8474px;font-family:'FiraCode Nerd Font';-inkscape-font-specification:'FiraCode Nerd Font Bold';font-variant-ligatures:normal;font-variant-position:normal;font-variant-caps:normal;font-variant-numeric:normal;font-variant-alternates:normal;font-variant-east-asian:normal;font-feature-settings:normal;font-variation-settings:normal;text-indent:0;text-align:center;text-decoration-line:none;text-decoration-style:solid;text-decoration-color:#000000;letter-spacing:normal;word-spacing:normal;text-transform:none;writing-mode:lr-tb;direction:ltr;text-orientation:mixed;dominant-baseline:auto;baseline-shift:baseline;white-space:normal;opacity:1;vector-effect:none;fill:#000000;fill-opacity:1;stroke:none;stroke-width:4.00283;stroke-linecap:butt;stroke-linejoin:miter;stroke-miterlimit:4;stroke-dasharray:none;stroke-dashoffset:0;stroke-opacity:1;-inkscape-stroke:none;paint-order:stroke fill markers;stop-color:#000000;stop-opacity:1"
       x="281.46051"
       y="71.379471"
       id="text4903"><tspan
         sodipodi:role="line"
         style="font-style:normal;font-variant:normal;font-weight:300;font-stretch:normal;font-family:'FiraCode Nerd Font';-inkscape-font-specification:'FiraCode Nerd Font Light';text-align:end;text-anchor:end;stroke-width:4.00283"
         x="281.46051"
         y="71.379471"
         id="tspan4907">Workshop</tspan><tspan
         sodipodi:role="line"
         style="text-align:end;text-anchor:end;stroke-width:4.00283"
         x="281.46051"
         y="99.226868"
         id="tspan4905">Embedded</tspan><tspan
         sodipodi:role="line"
         style="text-align:end;text-anchor:end;stroke-width:4.00283"
         x="281.46051"
         y="127.07426"
         id="tspan5052">Rust</tspan></text><text
       xml:space="preserve"
       style="font-style:normal;font-variant:normal;font-weight:300;font-stretch:normal;font-size:9.87778px;line-height:11.6666px;font-family:'FiraCode Nerd Font';-inkscape-font-specification:'FiraCode Nerd Font Light';font-variant-ligatures:normal;font-variant-position:normal;font-variant-caps:normal;font-variant-numeric:normal;font-variant-alternates:normal;font-variant-east-asian:normal;font-feature-settings:normal;text-indent:0;text-align:center;text-decoration-line:none;text-decoration-style:solid;text-decoration-color:#000000;letter-spacing:normal;word-spacing:normal;text-transform:none;writing-mode:lr-tb;direction:ltr;text-orientation:mixed;dominant-baseline:auto;baseline-shift:baseline;white-space:normal;opacity:1;fill:#000000;fill-opacity:1;stroke:none;stroke-width:2.476;stroke-linecap:butt;stroke-linejoin:miter;stroke-miterlimit:4;stroke-dasharray:none;stroke-dashoffset:0;stroke-opacity:1;paint-order:stroke fill markers;stop-color:#000000;stop-opacity:1"
       x="180.69579"
       y="194.11969"
       id="text4913"><tspan
         sodipodi:role="line"
         id="tspan4911"
         style="font-size:9.87778px;stroke-width:2.476;stroke-dasharray:none"
         x="180.69579"
         y="194.11969">by Hugo &amp; Willem</tspan></text></g></svg>
